<?xml version="1.0" encoding="UTF-8" standalone="no"?>
<svg xmlns="http://www.w3.org/2000/svg" xmlns:xlink="http://www.w3.org/1999/xlink" width="288.958mm" height="111.406mm" viewBox="521.519409 146.797424 288.958435 111.405945">
    <path transform="matrix(-1,-0,-0,1,726.041138,1.268036)" style="stroke:#000000;stroke-width:0.050000mm;fill:none" d="M196.265762,147.681641L137.49527,145.529434L110.545258,145.529434L61.835266,157.001526C61.373154,157.099548,61.042557,157.507446,61.042358,157.979828L61.042465,232.687347C61.042358,233.13974,61.346115,233.535828,61.783066,233.653046L99.367462,243.729828L148.341156,243.729828L191.97258,256.859863C192.857376,257.115112,193.801987,256.733276,194.260956,255.934937L204.251251,238.595428C204.593643,238.006592,204.6129,237.283997,204.302368,236.677734L198.495255,225.933441L198.295258,225.333435L198.192459,224.683441L198.192352,149.680328C198.192383,148.604279,197.340988,147.721069,196.265762,147.681641z"/>
    <circle transform="matrix(1,0,-0,1,570.148071,168.572968)" style="stroke:#000000;stroke-width:0.050000mm;fill:none" r="1.1" cx="0" cy="0"/>
    <circle transform="matrix(1,0,-0,1,570.148071,206.672974)" style="stroke:#000000;stroke-width:0.050000mm;fill:none" r="1.1" cx="0" cy="0"/>
    <circle transform="matrix(1,0,-0,1,542.448059,230.547974)" style="stroke:#000000;stroke-width:0.050000mm;fill:none" r="1.1" cx="0" cy="0"/>
    <circle transform="matrix(1,0,-0,1,645.723389,215.673004)" style="stroke:#000000;stroke-width:0.050000mm;fill:none" r="1.1" cx="0" cy="0"/>
    <circle transform="matrix(1,0,-0,1,645.723389,177.572998)" style="stroke:#000000;stroke-width:0.050000mm;fill:none" r="1.1" cx="0" cy="0"/>
    <path transform="matrix(1,0,-0,1,605.956238,1.268036)" style="stroke:#000000;stroke-width:0.050000mm;fill:none" d="M196.265762,147.681641L137.49527,145.529434L110.545258,145.529434L61.835266,157.001526C61.373154,157.099548,61.042557,157.507446,61.042358,157.979828L61.042465,232.687347C61.042358,233.13974,61.346115,233.535828,61.783066,233.653046L99.367462,243.729828L148.341156,243.729828L191.97258,256.859863C192.857376,257.115112,193.801987,256.733276,194.260956,255.934937L204.251251,238.595428C204.593643,238.006592,204.6129,237.283997,204.302368,236.677734L198.495255,225.933441L198.295258,225.333435L198.192459,224.683441L198.192352,149.680328C198.192383,148.604279,197.340988,147.721069,196.265762,147.681641z"/>
    <circle transform="matrix(-1,-0,-0,1,761.849182,168.573059)" style="stroke:#000000;stroke-width:0.050000mm;fill:none" r="1.1" cx="0" cy="0"/>
    <circle transform="matrix(-1,-0,-0,1,761.849182,206.673065)" style="stroke:#000000;stroke-width:0.050000mm;fill:none" r="1.1" cx="0" cy="0"/>
    <circle transform="matrix(-1,-0,-0,1,789.549194,230.548065)" style="stroke:#000000;stroke-width:0.050000mm;fill:none" r="1.1" cx="0" cy="0"/>
    <circle transform="matrix(-1,-0,-0,1,686.273865,215.673035)" style="stroke:#000000;stroke-width:0.050000mm;fill:none" r="1.1" cx="0" cy="0"/>
    <circle transform="matrix(-1,-0,-0,1,686.273865,177.573029)" style="stroke:#000000;stroke-width:0.050000mm;fill:none" r="1.1" cx="0" cy="0"/>
</svg>
