  0
SECTION
  2
HEADER
  9
$ACADVER
  1
AC1009
  0
ENDSEC
  0
SECTION
  2
ENTITIES
  0
POLYLINE
  5
90
  8
Layer_0
  62
0
  66
1
  10
0
  20
0
  30
0
  0
VERTEX
  5
90
  8
Layer_0
  10
1229.7753
  20
351.05038
  0
VERTEX
  5
91
  8
Layer_0
  10
1288.5458
  20
353.20258
  0
VERTEX
  5
92
  8
Layer_0
  10
1315.4958
  20
353.20258
  0
VERTEX
  5
93
  8
Layer_0
  10
1364.2058
  20
341.73045
  42
-0.35411844
  0
VERTEX
  5
94
  8
Layer_0
  10
1364.9987
  20
340.75215
  0
VERTEX
  5
95
  8
Layer_0
  10
1364.9986
  20
266.04463
  42
-0.33943827
  0
VERTEX
  5
96
  8
Layer_0
  10
1364.258
  20
265.07893
  0
VERTEX
  5
97
  8
Layer_0
  10
1326.6736
  20
255.00217
  0
VERTEX
  5
98
  8
Layer_0
  10
1277.6999
  20
255.00218
  0
VERTEX
  5
99
  8
Layer_0
  10
1234.0685
  20
241.87216
  42
-0.3452903
  0
VERTEX
  5
9a
  8
Layer_0
  10
1231.7801
  20
242.79709
  0
VERTEX
  5
9b
  8
Layer_0
  10
1221.7898
  20
260.13661
  42
-0.25535517
  0
VERTEX
  5
9c
  8
Layer_0
  10
1221.7387
  20
262.05431
  0
VERTEX
  5
9d
  8
Layer_0
  10
1227.5458
  20
272.7986
  0
VERTEX
  5
9e
  8
Layer_0
  10
1227.7458
  20
273.39861
  0
VERTEX
  5
9f
  8
Layer_0
  10
1227.8486
  20
274.0486
  0
VERTEX
  5
a0
  8
Layer_0
  10
1227.8488
  20
349.05171
  42
-0.40352647
  0
VERTEX
  5
a1
  8
Layer_0
  10
1229.7753
  20
351.05038
  0
SEQEND
  0
CIRCLE
  5
a3
  8
Layer_0
  62
0
  10
1270.1481
  20
331.42703
  30
0
  40
1.1
  0
CIRCLE
  5
a3
  8
Layer_0
  62
0
  10
1270.1481
  20
293.32703
  30
0
  40
1.1
  0
CIRCLE
  5
a3
  8
Layer_0
  62
0
  10
1242.448
  20
269.45203
  30
0
  40
1.1
  0
CIRCLE
  5
a3
  8
Layer_0
  62
0
  10
1345.7234
  20
284.327
  30
0
  40
1.1
  0
CIRCLE
  5
a3
  8
Layer_0
  62
0
  10
1345.7234
  20
322.427
  30
0
  40
1.1
  0
POLYLINE
  5
a3
  8
Layer_0
  62
0
  66
1
  10
0
  20
0
  30
0
  0
VERTEX
  5
a3
  8
Layer_0
  10
1502.222
  20
351.05029
  0
VERTEX
  5
a4
  8
Layer_0
  10
1443.4515
  20
353.2025
  0
VERTEX
  5
a5
  8
Layer_0
  10
1416.5015
  20
353.20251
  0
VERTEX
  5
a6
  8
Layer_0
  10
1367.7915
  20
341.73042
  42
0.35411844
  0
VERTEX
  5
a7
  8
Layer_0
  10
1366.9986
  20
340.75212
  0
VERTEX
  5
a8
  8
Layer_0
  10
1366.9987
  20
266.0446
  42
0.33943827
  0
VERTEX
  5
a9
  8
Layer_0
  10
1367.7393
  20
265.0789
  0
VERTEX
  5
aa
  8
Layer_0
  10
1405.3237
  20
255.00212
  0
VERTEX
  5
ab
  8
Layer_0
  10
1454.2974
  20
255.00211
  0
VERTEX
  5
ac
  8
Layer_0
  10
1497.9288
  20
241.87207
  42
0.3452903
  0
VERTEX
  5
ad
  8
Layer_0
  10
1500.2172
  20
242.797
  0
VERTEX
  5
ae
  8
Layer_0
  10
1510.2075
  20
260.13651
  42
0.25535517
  0
VERTEX
  5
af
  8
Layer_0
  10
1510.2585
  20
262.0542
  0
VERTEX
  5
b0
  8
Layer_0
  10
1504.4514
  20
272.79849
  0
VERTEX
  5
b1
  8
Layer_0
  10
1504.2515
  20
273.3985
  0
VERTEX
  5
b2
  8
Layer_0
  10
1504.1487
  20
274.04849
  0
VERTEX
  5
b3
  8
Layer_0
  10
1504.1486
  20
349.05161
  42
0.40352647
  0
VERTEX
  5
b4
  8
Layer_0
  10
1502.222
  20
351.05029
  0
SEQEND
  0
CIRCLE
  5
b6
  8
Layer_0
  62
0
  10
1461.8491
  20
331.42694
  30
0
  40
1.1
  0
CIRCLE
  5
b6
  8
Layer_0
  62
0
  10
1461.8491
  20
293.32693
  30
0
  40
1.1
  0
CIRCLE
  5
b6
  8
Layer_0
  62
0
  10
1489.5492
  20
269.45193
  30
0
  40
1.1
  0
CIRCLE
  5
b6
  8
Layer_0
  62
0
  10
1386.2739
  20
284.32697
  30
0
  40
1.1
  0
CIRCLE
  5
b6
  8
Layer_0
  62
0
  10
1386.2739
  20
322.42697
  30
0
  40
1.1
  0
ENDSEC
  0
EOF
