<?xml version="1.0" encoding="UTF-8" standalone="no"?>
<svg xmlns="http://www.w3.org/2000/svg" xmlns:xlink="http://www.w3.org/1999/xlink" width="288.960mm" height="111.406mm" viewBox="521.520569 8.796661 288.960083 111.405556">
    <circle transform="matrix(1,0,-0,1,640.570557,65.04821)" style="stroke:#000000;stroke-width:0.050000mm;fill:none" r="1.1" cx="0" cy="0"/>
    <circle transform="matrix(1,0,-0,1,657.070557,65.048225)" style="stroke:#000000;stroke-width:0.050000mm;fill:none" r="1.1" cx="0" cy="0"/>
    <path transform="matrix(-1,-0,-0,1,834.663635,-138.232025)" style="stroke:#000000;stroke-width:0.050000mm;fill:none" d="M197.192734,203.780334L197.192734,149.680328C197.192734,148.575775,196.297302,147.680328,195.192734,147.680328L176.492737,147.680328C175.388168,147.680328,174.492737,148.575775,174.492737,149.680328L174.492737,203.780334C174.492737,204.884918,175.388168,205.780334,176.492737,205.780334L195.192734,205.780334C196.297302,205.780334,197.192734,204.884918,197.192734,203.780334z"/>
    <circle transform="matrix(1,0,-0,1,674.930054,65.04821)" style="stroke:#000000;stroke-width:0.050000mm;fill:none" r="1.1" cx="0" cy="0"/>
    <circle transform="matrix(1,0,-0,1,691.430054,65.048225)" style="stroke:#000000;stroke-width:0.050000mm;fill:none" r="1.1" cx="0" cy="0"/>
    <path transform="matrix(-1,-0,-0,1,869.023132,-138.232025)" style="stroke:#000000;stroke-width:0.050000mm;fill:none" d="M197.192734,203.780334L197.192734,149.680328C197.192734,148.575775,196.297302,147.680328,195.192734,147.680328L176.492737,147.680328C175.388168,147.680328,174.492737,148.575775,174.492737,149.680328L174.492737,203.780334C174.492737,204.884918,175.388168,205.780334,176.492737,205.780334L195.192734,205.780334C196.297302,205.780334,197.192734,204.884918,197.192734,203.780334z"/>
    <circle transform="matrix(1,0,-0,1,715.627075,68.673714)" style="stroke:#000000;stroke-width:0.050000mm;fill:none" r="1.1" cx="0" cy="0"/>
    <circle transform="matrix(1,0,-0,1,687.927124,92.548706)" style="stroke:#000000;stroke-width:0.050000mm;fill:none" r="1.1" cx="0" cy="0"/>
    <circle transform="matrix(1,0,-0,1,791.202881,77.673744)" style="stroke:#000000;stroke-width:0.050000mm;fill:none" r="1.1" cx="0" cy="0"/>
    <circle transform="matrix(1,0,-0,1,791.202881,39.573742)" style="stroke:#000000;stroke-width:0.050000mm;fill:none" r="1.1" cx="0" cy="0"/>
    <circle transform="matrix(1,0,-0,1,715.627075,30.573715)" style="stroke:#000000;stroke-width:0.050000mm;fill:none" r="1.1" cx="0" cy="0"/>
    <path transform="matrix(-1,-0,-0,1,870.520691,-136.731232)" style="stroke:#000000;stroke-width:0.050000mm;fill:none" d="M62.892731,217.030334L76.692734,217.030334L76.692734,230.830322L62.892731,230.830322L62.892731,217.030334z"/>
    <path transform="matrix(-1,-0,-0,1,870.520691,-136.731232)" style="stroke:#000000;stroke-width:0.050000mm;fill:none" d="M62.892731,178.930328L76.692734,178.930328L76.692734,192.730331L62.892731,192.730331L62.892731,178.930328z"/>
    <path transform="matrix(-1,-0,-0,1,870.520691,-136.731232)" style="stroke:#000000;stroke-width:0.050000mm;fill:none" d="M62.892731,159.880341L76.692734,159.880341L76.692734,173.680328L62.892731,173.680328L62.892731,159.880341z"/>
    <path transform="matrix(-1,-0,-0,1,870.520691,-136.731232)" style="stroke:#000000;stroke-width:0.050000mm;fill:none" d="M62.892731,197.980347L76.692734,197.980347L76.692734,211.780334L62.892731,211.780334L62.892731,197.980347z"/>
    <path transform="matrix(-1,-0,-0,1,870.520691,-136.731232)" style="stroke:#000000;stroke-width:0.050000mm;fill:none" d="M120.042732,186.480331L133.842743,186.480331L133.842743,200.280334L120.042732,200.280334L120.042732,186.480331z"/>
    <path transform="matrix(-1,-0,-0,1,870.520691,-136.731232)" style="stroke:#000000;stroke-width:0.050000mm;fill:none" d="M100.992737,208.030334L114.792732,208.030334L114.792732,221.830322L100.992737,221.830322L100.992737,208.030334z"/>
    <path transform="matrix(-1,-0,-0,1,870.520691,-136.731232)" style="stroke:#000000;stroke-width:0.050000mm;fill:none" d="M139.092743,208.030334L152.892731,208.030334L152.892731,221.830322L139.092743,221.830322L139.092743,208.030334z"/>
    <path transform="matrix(-1,-0,-0,1,870.520691,-136.731232)" style="stroke:#000000;stroke-width:0.050000mm;fill:none" d="M81.942734,197.980347L95.742737,197.980347L95.742737,211.780334L81.942734,211.780334L81.942734,197.980347z"/>
    <path transform="matrix(-1,-0,-0,1,870.520691,-136.731232)" style="stroke:#000000;stroke-width:0.050000mm;fill:none" d="M120.042732,167.430328L133.842743,167.430328L133.842743,181.230331L120.042732,181.230331L120.042732,167.430328z"/>
    <path transform="matrix(-1,-0,-0,1,870.520691,-136.731232)" style="stroke:#000000;stroke-width:0.050000mm;fill:none" d="M120.042732,205.530334L133.842743,205.530334L133.842743,219.330322L120.042732,219.330322L120.042732,205.530334z"/>
    <path transform="matrix(-1,-0,-0,1,870.520691,-136.731232)" style="stroke:#000000;stroke-width:0.050000mm;fill:none" d="M100.992737,169.930328L114.792732,169.930328L114.792732,183.730331L100.992737,183.730331L100.992737,169.930328z"/>
    <path transform="matrix(-1,-0,-0,1,870.520691,-136.731232)" style="stroke:#000000;stroke-width:0.050000mm;fill:none" d="M152.892731,240.880341L139.092743,240.880341L139.092743,227.080322L152.892731,227.080322L152.892731,240.880341z"/>
    <path transform="matrix(-1,-0,-0,1,870.520691,-136.731232)" style="stroke:#000000;stroke-width:0.050000mm;fill:none" d="M139.092743,169.930328L152.892731,169.930328L152.892731,183.730331L139.092743,183.730331L139.092743,169.930328z"/>
    <path transform="matrix(-1,-0,-0,1,870.520691,-136.731232)" style="stroke:#000000;stroke-width:0.050000mm;fill:none" d="M139.092743,188.980331L152.892731,188.980331L152.892731,202.780334L139.092743,202.780334L139.092743,188.980331z"/>
    <path transform="matrix(-1,-0,-0,1,870.520691,-136.731232)" style="stroke:#000000;stroke-width:0.050000mm;fill:none" d="M100.992737,150.880341L114.792732,150.880341L114.792732,164.680328L100.992737,164.680328L100.992737,150.880341z"/>
    <path transform="matrix(-1,-0,-0,1,870.520691,-136.731232)" style="stroke:#000000;stroke-width:0.050000mm;fill:none" d="M100.992737,188.980331L114.792732,188.980331L114.792732,202.780334L100.992737,202.780334L100.992737,188.980331z"/>
    <path transform="matrix(-1,-0,-0,1,870.520691,-136.731232)" style="stroke:#000000;stroke-width:0.050000mm;fill:none" d="M81.942734,159.880341L95.742737,159.880341L95.742737,173.680328L81.942734,173.680328L81.942734,159.880341z"/>
    <path transform="matrix(-1,-0,-0,1,870.520691,-136.731232)" style="stroke:#000000;stroke-width:0.050000mm;fill:none" d="M120.042732,238.380341L120.042732,224.580322L133.842743,224.580322L133.842743,238.380341L120.042732,238.380341z"/>
    <path transform="matrix(-1,-0,-0,1,870.520691,-136.731232)" style="stroke:#000000;stroke-width:0.050000mm;fill:none" d="M100.992737,240.880341L100.992737,227.080322L114.792732,227.080322L114.792732,240.880341L100.992737,240.880341z"/>
    <path transform="matrix(-1,-0,-0,1,870.520691,-136.731232)" style="stroke:#000000;stroke-width:0.050000mm;fill:none" d="M120.042732,148.380341L133.842743,148.380341L133.842743,162.180328L120.042732,162.180328L120.042732,148.380341z"/>
    <path transform="matrix(-1,-0,-0,1,870.520691,-136.731232)" style="stroke:#000000;stroke-width:0.050000mm;fill:none" d="M81.942734,178.930328L95.742737,178.930328L95.742737,192.730331L81.942734,192.730331L81.942734,178.930328z"/>
    <path transform="matrix(-1,-0,-0,1,870.520691,-136.731232)" style="stroke:#000000;stroke-width:0.050000mm;fill:none" d="M81.942734,217.030334L95.742737,217.030334L95.742737,230.830322L81.942734,230.830322L81.942734,217.030334z"/>
    <path transform="matrix(-1,-0,-0,1,870.520691,-136.731232)" style="stroke:#000000;stroke-width:0.050000mm;fill:none" d="M139.092743,150.880341L152.892731,150.880341L152.892731,164.680328L139.092743,164.680328L139.092743,150.880341z"/>
    <path transform="matrix(-1,-0,-0,1,870.520691,-136.731232)" style="stroke:#000000;stroke-width:0.050000mm;fill:none" d="M158.142731,210.530334L171.942734,210.530334L171.942734,224.330322L158.142731,224.330322L158.142731,210.530334z"/>
    <path transform="matrix(-1,-0,-0,1,870.520691,-136.731232)" style="stroke:#000000;stroke-width:0.050000mm;fill:none" d="M158.142731,172.480331L171.942734,172.480331L171.942734,186.280334L158.142731,186.280334L158.142731,172.480331z"/>
    <path transform="matrix(-1,-0,-0,1,870.520691,-136.731232)" style="stroke:#000000;stroke-width:0.050000mm;fill:none" d="M158.142731,153.380341L171.942734,153.380341L171.942734,167.180328L158.142731,167.180328L158.142731,153.380341z"/>
    <path transform="matrix(-1,-0,-0,1,870.520691,-136.731232)" style="stroke:#000000;stroke-width:0.050000mm;fill:none" d="M158.142731,191.480331L171.942734,191.480331L171.942734,205.280334L158.142731,205.280334L158.142731,191.480331z"/>
    <path transform="matrix(-1,-0,-0,1,870.520691,-136.731232)" style="stroke:#000000;stroke-width:0.050000mm;fill:none" d="M186.357132,234.25473L179.457138,246.205841L191.40834,253.105835L198.308334,241.154724L186.357132,234.25473z"/>
    <path transform="matrix(-1,-0,-0,1,870.520691,-136.731232)" style="stroke:#000000;stroke-width:0.050000mm;fill:none" d="M176.443436,233.801239L163.113739,230.229523L159.542038,243.559326L172.871735,247.131042L176.443436,233.801239z"/>
    <path transform="matrix(-1,-0,-0,1,870.520691,-136.731232)" style="stroke:#000000;stroke-width:0.050000mm;fill:none" d="M173.028671,146.868652C173.56633,146.888382,173.992004,147.329971,173.992004,147.867981L173.992004,203.776001C173.994064,205.15834,175.113663,206.277756,176.496002,206.279999L196.192001,206.279999C196.744293,206.279999,197.192001,206.727707,197.192001,207.279999L197.192001,224.679993L197.296005,225.335999L197.496002,225.936005L203.304001,236.679993C203.611664,237.285553,203.59111,238.005798,203.248001,238.591995L193.264008,255.936005C192.804794,256.733734,191.85939,257.114563,190.975998,256.855988L147.343994,243.727997L98.367996,243.727997L60.784,233.656006C60.346615,233.537201,60.042461,233.141235,60.040001,232.688004L60.040001,157.975998C60.045689,157.506561,60.373848,157.102478,60.832001,157L109.543999,145.528L136.496002,145.528L173.028671,146.868652z"/>
    <path transform="matrix(-1,-0,-0,1,1294.986084,-140.143082)" style="stroke:#000000;stroke-width:0.050000mm;fill:none" d="M617.955627,224.694336L602.65564,224.694336L602.65564,211.694336L617.955627,211.694336L617.955627,224.694336z"/>
    <circle transform="matrix(-1,-0,-0,1,616.374084,68.673683)" style="stroke:#000000;stroke-width:0.050000mm;fill:none" r="1.1" cx="0" cy="0"/>
    <circle transform="matrix(-1,-0,-0,1,644.074097,92.548691)" style="stroke:#000000;stroke-width:0.050000mm;fill:none" r="1.1" cx="0" cy="0"/>
    <circle transform="matrix(-1,-0,-0,1,540.798279,77.673653)" style="stroke:#000000;stroke-width:0.050000mm;fill:none" r="1.1" cx="0" cy="0"/>
    <circle transform="matrix(-1,-0,-0,1,540.798279,39.57365)" style="stroke:#000000;stroke-width:0.050000mm;fill:none" r="1.1" cx="0" cy="0"/>
    <circle transform="matrix(-1,-0,-0,1,616.374084,30.573677)" style="stroke:#000000;stroke-width:0.050000mm;fill:none" r="1.1" cx="0" cy="0"/>
    <path transform="matrix(1,0,-0,1,461.480652,-136.731384)" style="stroke:#000000;stroke-width:0.050000mm;fill:none" d="M62.892731,217.030334L76.692734,217.030334L76.692734,230.830322L62.892731,230.830322L62.892731,217.030334z"/>
    <path transform="matrix(1,0,-0,1,461.480652,-136.731384)" style="stroke:#000000;stroke-width:0.050000mm;fill:none" d="M62.892731,178.930328L76.692734,178.930328L76.692734,192.730331L62.892731,192.730331L62.892731,178.930328z"/>
    <path transform="matrix(1,0,-0,1,461.480652,-136.731384)" style="stroke:#000000;stroke-width:0.050000mm;fill:none" d="M62.892731,159.880341L76.692734,159.880341L76.692734,173.680328L62.892731,173.680328L62.892731,159.880341z"/>
    <path transform="matrix(1,0,-0,1,461.480652,-136.731384)" style="stroke:#000000;stroke-width:0.050000mm;fill:none" d="M62.892731,197.980347L76.692734,197.980347L76.692734,211.780334L62.892731,211.780334L62.892731,197.980347z"/>
    <path transform="matrix(1,0,-0,1,461.480652,-136.731384)" style="stroke:#000000;stroke-width:0.050000mm;fill:none" d="M120.042732,186.480331L133.842743,186.480331L133.842743,200.280334L120.042732,200.280334L120.042732,186.480331z"/>
    <path transform="matrix(1,0,-0,1,461.480652,-136.731384)" style="stroke:#000000;stroke-width:0.050000mm;fill:none" d="M100.992737,208.030334L114.792732,208.030334L114.792732,221.830322L100.992737,221.830322L100.992737,208.030334z"/>
    <path transform="matrix(1,0,-0,1,461.480652,-136.731384)" style="stroke:#000000;stroke-width:0.050000mm;fill:none" d="M139.092743,208.030334L152.892731,208.030334L152.892731,221.830322L139.092743,221.830322L139.092743,208.030334z"/>
    <path transform="matrix(1,0,-0,1,461.480652,-136.731384)" style="stroke:#000000;stroke-width:0.050000mm;fill:none" d="M81.942734,197.980347L95.742737,197.980347L95.742737,211.780334L81.942734,211.780334L81.942734,197.980347z"/>
    <path transform="matrix(1,0,-0,1,461.480652,-136.731384)" style="stroke:#000000;stroke-width:0.050000mm;fill:none" d="M120.042732,167.430328L133.842743,167.430328L133.842743,181.230331L120.042732,181.230331L120.042732,167.430328z"/>
    <path transform="matrix(1,0,-0,1,461.480652,-136.731384)" style="stroke:#000000;stroke-width:0.050000mm;fill:none" d="M120.042732,205.530334L133.842743,205.530334L133.842743,219.330322L120.042732,219.330322L120.042732,205.530334z"/>
    <path transform="matrix(1,0,-0,1,461.480652,-136.731384)" style="stroke:#000000;stroke-width:0.050000mm;fill:none" d="M100.992737,169.930328L114.792732,169.930328L114.792732,183.730331L100.992737,183.730331L100.992737,169.930328z"/>
    <path transform="matrix(1,0,-0,1,461.480652,-136.731384)" style="stroke:#000000;stroke-width:0.050000mm;fill:none" d="M152.892731,240.880341L139.092743,240.880341L139.092743,227.080322L152.892731,227.080322L152.892731,240.880341z"/>
    <path transform="matrix(1,0,-0,1,461.480652,-136.731384)" style="stroke:#000000;stroke-width:0.050000mm;fill:none" d="M139.092743,169.930328L152.892731,169.930328L152.892731,183.730331L139.092743,183.730331L139.092743,169.930328z"/>
    <path transform="matrix(1,0,-0,1,461.480652,-136.731384)" style="stroke:#000000;stroke-width:0.050000mm;fill:none" d="M139.092743,188.980331L152.892731,188.980331L152.892731,202.780334L139.092743,202.780334L139.092743,188.980331z"/>
    <path transform="matrix(1,0,-0,1,461.480652,-136.731384)" style="stroke:#000000;stroke-width:0.050000mm;fill:none" d="M100.992737,150.880341L114.792732,150.880341L114.792732,164.680328L100.992737,164.680328L100.992737,150.880341z"/>
    <path transform="matrix(1,0,-0,1,461.480652,-136.731384)" style="stroke:#000000;stroke-width:0.050000mm;fill:none" d="M100.992737,188.980331L114.792732,188.980331L114.792732,202.780334L100.992737,202.780334L100.992737,188.980331z"/>
    <path transform="matrix(1,0,-0,1,461.480652,-136.731384)" style="stroke:#000000;stroke-width:0.050000mm;fill:none" d="M81.942734,159.880341L95.742737,159.880341L95.742737,173.680328L81.942734,173.680328L81.942734,159.880341z"/>
    <path transform="matrix(1,0,-0,1,461.480652,-136.731384)" style="stroke:#000000;stroke-width:0.050000mm;fill:none" d="M120.042732,238.380341L120.042732,224.580322L133.842743,224.580322L133.842743,238.380341L120.042732,238.380341z"/>
    <path transform="matrix(1,0,-0,1,461.480652,-136.731384)" style="stroke:#000000;stroke-width:0.050000mm;fill:none" d="M100.992737,240.880341L100.992737,227.080322L114.792732,227.080322L114.792732,240.880341L100.992737,240.880341z"/>
    <path transform="matrix(1,0,-0,1,461.480652,-136.731384)" style="stroke:#000000;stroke-width:0.050000mm;fill:none" d="M120.042732,148.380341L133.842743,148.380341L133.842743,162.180328L120.042732,162.180328L120.042732,148.380341z"/>
    <path transform="matrix(1,0,-0,1,461.480652,-136.731384)" style="stroke:#000000;stroke-width:0.050000mm;fill:none" d="M81.942734,178.930328L95.742737,178.930328L95.742737,192.730331L81.942734,192.730331L81.942734,178.930328z"/>
    <path transform="matrix(1,0,-0,1,461.480652,-136.731384)" style="stroke:#000000;stroke-width:0.050000mm;fill:none" d="M81.942734,217.030334L95.742737,217.030334L95.742737,230.830322L81.942734,230.830322L81.942734,217.030334z"/>
    <path transform="matrix(1,0,-0,1,461.480652,-136.731384)" style="stroke:#000000;stroke-width:0.050000mm;fill:none" d="M139.092743,150.880341L152.892731,150.880341L152.892731,164.680328L139.092743,164.680328L139.092743,150.880341z"/>
    <path transform="matrix(1,0,-0,1,461.480652,-136.731384)" style="stroke:#000000;stroke-width:0.050000mm;fill:none" d="M158.142731,210.530334L171.942734,210.530334L171.942734,224.330322L158.142731,224.330322L158.142731,210.530334z"/>
    <path transform="matrix(1,0,-0,1,461.480652,-136.731384)" style="stroke:#000000;stroke-width:0.050000mm;fill:none" d="M158.142731,172.480331L171.942734,172.480331L171.942734,186.280334L158.142731,186.280334L158.142731,172.480331z"/>
    <path transform="matrix(1,0,-0,1,461.480652,-136.731384)" style="stroke:#000000;stroke-width:0.050000mm;fill:none" d="M158.142731,153.380341L171.942734,153.380341L171.942734,167.180328L158.142731,167.180328L158.142731,153.380341z"/>
    <path transform="matrix(1,0,-0,1,461.480652,-136.731384)" style="stroke:#000000;stroke-width:0.050000mm;fill:none" d="M158.142731,191.480331L171.942734,191.480331L171.942734,205.280334L158.142731,205.280334L158.142731,191.480331z"/>
    <path transform="matrix(1,0,-0,1,461.480652,-136.731384)" style="stroke:#000000;stroke-width:0.050000mm;fill:none" d="M186.357132,234.25473L179.457138,246.205841L191.40834,253.105835L198.308334,241.154724L186.357132,234.25473z"/>
    <path transform="matrix(1,0,-0,1,461.480652,-136.731384)" style="stroke:#000000;stroke-width:0.050000mm;fill:none" d="M176.443436,233.801239L163.113739,230.229523L159.542038,243.559326L172.871735,247.131042L176.443436,233.801239z"/>
    <path transform="matrix(1,0,-0,1,461.480652,-136.731384)" style="stroke:#000000;stroke-width:0.050000mm;fill:none" d="M173.028671,146.868652C173.56633,146.888382,173.992004,147.329971,173.992004,147.867981L173.992004,203.776001C173.994064,205.15834,175.113663,206.277756,176.496002,206.279999L196.192001,206.279999C196.744293,206.279999,197.192001,206.727707,197.192001,207.279999L197.192001,224.679993L197.296005,225.335999L197.496002,225.936005L203.304001,236.679993C203.611664,237.285553,203.59111,238.005798,203.248001,238.591995L193.264008,255.936005C192.804794,256.733734,191.85939,257.114563,190.975998,256.855988L147.343994,243.727997L98.367996,243.727997L60.784,233.656006C60.346615,233.537201,60.042461,233.141235,60.040001,232.688004L60.040001,157.975998C60.045689,157.506561,60.373848,157.102478,60.832001,157L109.543999,145.528L136.496002,145.528L173.028671,146.868652z"/>
    <path transform="matrix(1,0,-0,1,37.015137,-140.143524)" style="stroke:#000000;stroke-width:0.050000mm;fill:none" d="M617.955627,224.694336L602.65564,224.694336L602.65564,211.694336L617.955627,211.694336L617.955627,224.694336z"/>
</svg>
