  0
SECTION
  2
HEADER
  9
$ACADVER
  1
AC1009
  0
ENDSEC
  0
SECTION
  2
ENTITIES
  0
CIRCLE
  5
90
  8
Layer_0
  62
0
  10
1340.5706
  20
434.95178
  30
0
  40
1.1
  0
CIRCLE
  5
90
  8
Layer_0
  62
0
  10
1357.0706
  20
434.95178
  30
0
  40
1.1
  0
POLYLINE
  5
90
  8
Layer_0
  62
0
  66
1
  10
0
  20
0
  30
0
  0
VERTEX
  5
90
  8
Layer_0
  10
1337.4708
  20
434.45177
  0
VERTEX
  5
91
  8
Layer_0
  10
1337.4708
  20
488.55177
  42
-0.41421356
  0
VERTEX
  5
92
  8
Layer_0
  10
1339.4708
  20
490.55176
  0
VERTEX
  5
93
  8
Layer_0
  10
1358.1708
  20
490.55176
  42
-0.41421356
  0
VERTEX
  5
94
  8
Layer_0
  10
1360.1708
  20
488.55176
  0
VERTEX
  5
95
  8
Layer_0
  10
1360.1708
  20
434.45175
  42
-0.41421356
  0
VERTEX
  5
96
  8
Layer_0
  10
1358.1708
  20
432.45175
  0
VERTEX
  5
97
  8
Layer_0
  10
1339.4708
  20
432.45175
  42
-0.41421356
  0
VERTEX
  5
98
  8
Layer_0
  10
1337.4708
  20
434.45177
  0
SEQEND
  0
CIRCLE
  5
9a
  8
Layer_0
  62
0
  10
1374.9301
  20
434.95178
  30
0
  40
1.1
  0
CIRCLE
  5
9a
  8
Layer_0
  62
0
  10
1391.4301
  20
434.95178
  30
0
  40
1.1
  0
POLYLINE
  5
9a
  8
Layer_0
  62
0
  66
1
  10
0
  20
0
  30
0
  0
VERTEX
  5
9a
  8
Layer_0
  10
1371.8303
  20
434.45177
  0
VERTEX
  5
9b
  8
Layer_0
  10
1371.8303
  20
488.55177
  42
-0.41421356
  0
VERTEX
  5
9c
  8
Layer_0
  10
1373.8303
  20
490.55176
  0
VERTEX
  5
9d
  8
Layer_0
  10
1392.5303
  20
490.55176
  42
-0.41421356
  0
VERTEX
  5
9e
  8
Layer_0
  10
1394.5303
  20
488.55176
  0
VERTEX
  5
9f
  8
Layer_0
  10
1394.5303
  20
434.45175
  42
-0.41421356
  0
VERTEX
  5
a0
  8
Layer_0
  10
1392.5303
  20
432.45175
  0
VERTEX
  5
a1
  8
Layer_0
  10
1373.8303
  20
432.45175
  42
-0.41421356
  0
VERTEX
  5
a2
  8
Layer_0
  10
1371.8303
  20
434.45177
  0
SEQEND
  0
CIRCLE
  5
a4
  8
Layer_0
  62
0
  10
1415.6271
  20
431.32629
  30
0
  40
1.1
  0
CIRCLE
  5
a4
  8
Layer_0
  62
0
  10
1387.9271
  20
407.45129
  30
0
  40
1.1
  0
CIRCLE
  5
a4
  8
Layer_0
  62
0
  10
1491.2029
  20
422.32626
  30
0
  40
1.1
  0
CIRCLE
  5
a4
  8
Layer_0
  62
0
  10
1491.2029
  20
460.42627
  30
0
  40
1.1
  0
CIRCLE
  5
a4
  8
Layer_0
  62
0
  10
1415.6271
  20
469.42627
  30
0
  40
1.1
  0
POLYLINE
  5
a4
  8
Layer_0
  62
0
  66
1
  10
0
  20
0
  30
0
  0
VERTEX
  5
a4
  8
Layer_0
  10
1507.6279
  20
419.70091
  0
VERTEX
  5
a5
  8
Layer_0
  10
1493.8279
  20
419.70093
  0
VERTEX
  5
a6
  8
Layer_0
  10
1493.8279
  20
405.90094
  0
VERTEX
  5
a7
  8
Layer_0
  10
1507.6279
  20
405.90092
  0
VERTEX
  5
a8
  8
Layer_0
  10
1507.6279
  20
419.70091
  0
SEQEND
  0
POLYLINE
  5
aa
  8
Layer_0
  62
0
  66
1
  10
0
  20
0
  30
0
  0
VERTEX
  5
aa
  8
Layer_0
  10
1507.6279
  20
457.80092
  0
VERTEX
  5
ab
  8
Layer_0
  10
1493.8279
  20
457.80093
  0
VERTEX
  5
ac
  8
Layer_0
  10
1493.8279
  20
444.00093
  0
VERTEX
  5
ad
  8
Layer_0
  10
1507.6279
  20
444.00092
  0
VERTEX
  5
ae
  8
Layer_0
  10
1507.6279
  20
457.80092
  0
SEQEND
  0
POLYLINE
  5
b0
  8
Layer_0
  62
0
  66
1
  10
0
  20
0
  30
0
  0
VERTEX
  5
b0
  8
Layer_0
  10
1507.6279
  20
476.85091
  0
VERTEX
  5
b1
  8
Layer_0
  10
1493.8279
  20
476.85092
  0
VERTEX
  5
b2
  8
Layer_0
  10
1493.8279
  20
463.05093
  0
VERTEX
  5
b3
  8
Layer_0
  10
1507.6279
  20
463.05092
  0
VERTEX
  5
b4
  8
Layer_0
  10
1507.6279
  20
476.85091
  0
SEQEND
  0
POLYLINE
  5
b6
  8
Layer_0
  62
0
  66
1
  10
0
  20
0
  30
0
  0
VERTEX
  5
b6
  8
Layer_0
  10
1507.6279
  20
438.7509
  0
VERTEX
  5
b7
  8
Layer_0
  10
1493.8279
  20
438.75092
  0
VERTEX
  5
b8
  8
Layer_0
  10
1493.8279
  20
424.95093
  0
VERTEX
  5
b9
  8
Layer_0
  10
1507.6279
  20
424.95091
  0
VERTEX
  5
ba
  8
Layer_0
  10
1507.6279
  20
438.7509
  0
SEQEND
  0
POLYLINE
  5
bc
  8
Layer_0
  62
0
  66
1
  10
0
  20
0
  30
0
  0
VERTEX
  5
bc
  8
Layer_0
  10
1450.4779
  20
450.25095
  0
VERTEX
  5
bd
  8
Layer_0
  10
1436.6779
  20
450.25095
  0
VERTEX
  5
be
  8
Layer_0
  10
1436.6779
  20
436.45094
  0
VERTEX
  5
bf
  8
Layer_0
  10
1450.4779
  20
436.45094
  0
VERTEX
  5
c0
  8
Layer_0
  10
1450.4779
  20
450.25095
  0
SEQEND
  0
POLYLINE
  5
c2
  8
Layer_0
  62
0
  66
1
  10
0
  20
0
  30
0
  0
VERTEX
  5
c2
  8
Layer_0
  10
1469.5279
  20
428.70093
  0
VERTEX
  5
c3
  8
Layer_0
  10
1455.7279
  20
428.70094
  0
VERTEX
  5
c4
  8
Layer_0
  10
1455.7279
  20
414.90096
  0
VERTEX
  5
c5
  8
Layer_0
  10
1469.5279
  20
414.90094
  0
VERTEX
  5
c6
  8
Layer_0
  10
1469.5279
  20
428.70093
  0
SEQEND
  0
POLYLINE
  5
c8
  8
Layer_0
  62
0
  66
1
  10
0
  20
0
  30
0
  0
VERTEX
  5
c8
  8
Layer_0
  10
1431.4279
  20
428.70094
  0
VERTEX
  5
c9
  8
Layer_0
  10
1417.6279
  20
428.70096
  0
VERTEX
  5
ca
  8
Layer_0
  10
1417.6279
  20
414.90097
  0
VERTEX
  5
cb
  8
Layer_0
  10
1431.4279
  20
414.90096
  0
VERTEX
  5
cc
  8
Layer_0
  10
1431.4279
  20
428.70094
  0
SEQEND
  0
POLYLINE
  5
ce
  8
Layer_0
  62
0
  66
1
  10
0
  20
0
  30
0
  0
VERTEX
  5
ce
  8
Layer_0
  10
1488.5779
  20
438.75092
  0
VERTEX
  5
cf
  8
Layer_0
  10
1474.7779
  20
438.75092
  0
VERTEX
  5
d0
  8
Layer_0
  10
1474.7779
  20
424.95093
  0
VERTEX
  5
d1
  8
Layer_0
  10
1488.5779
  20
424.95093
  0
VERTEX
  5
d2
  8
Layer_0
  10
1488.5779
  20
438.75092
  0
SEQEND
  0
POLYLINE
  5
d4
  8
Layer_0
  62
0
  66
1
  10
0
  20
0
  30
0
  0
VERTEX
  5
d4
  8
Layer_0
  10
1450.4779
  20
469.30095
  0
VERTEX
  5
d5
  8
Layer_0
  10
1436.6779
  20
469.30095
  0
VERTEX
  5
d6
  8
Layer_0
  10
1436.6779
  20
455.50095
  0
VERTEX
  5
d7
  8
Layer_0
  10
1450.4779
  20
455.50095
  0
VERTEX
  5
d8
  8
Layer_0
  10
1450.4779
  20
469.30095
  0
SEQEND
  0
POLYLINE
  5
da
  8
Layer_0
  62
0
  66
1
  10
0
  20
0
  30
0
  0
VERTEX
  5
da
  8
Layer_0
  10
1450.4779
  20
431.20094
  0
VERTEX
  5
db
  8
Layer_0
  10
1436.6779
  20
431.20094
  0
VERTEX
  5
dc
  8
Layer_0
  10
1436.6779
  20
417.40096
  0
VERTEX
  5
dd
  8
Layer_0
  10
1450.4779
  20
417.40096
  0
VERTEX
  5
de
  8
Layer_0
  10
1450.4779
  20
431.20094
  0
SEQEND
  0
POLYLINE
  5
e0
  8
Layer_0
  62
0
  66
1
  10
0
  20
0
  30
0
  0
VERTEX
  5
e0
  8
Layer_0
  10
1469.5279
  20
466.80093
  0
VERTEX
  5
e1
  8
Layer_0
  10
1455.7279
  20
466.80095
  0
VERTEX
  5
e2
  8
Layer_0
  10
1455.7279
  20
453.00095
  0
VERTEX
  5
e3
  8
Layer_0
  10
1469.5279
  20
453.00093
  0
VERTEX
  5
e4
  8
Layer_0
  10
1469.5279
  20
466.80093
  0
SEQEND
  0
POLYLINE
  5
e6
  8
Layer_0
  62
0
  66
1
  10
0
  20
0
  30
0
  0
VERTEX
  5
e6
  8
Layer_0
  10
1417.6279
  20
395.85095
  0
VERTEX
  5
e7
  8
Layer_0
  10
1431.4279
  20
395.85094
  0
VERTEX
  5
e8
  8
Layer_0
  10
1431.4279
  20
409.65096
  0
VERTEX
  5
e9
  8
Layer_0
  10
1417.6279
  20
409.65097
  0
VERTEX
  5
ea
  8
Layer_0
  10
1417.6279
  20
395.85095
  0
SEQEND
  0
POLYLINE
  5
ec
  8
Layer_0
  62
0
  66
1
  10
0
  20
0
  30
0
  0
VERTEX
  5
ec
  8
Layer_0
  10
1431.4279
  20
466.80095
  0
VERTEX
  5
ed
  8
Layer_0
  10
1417.6279
  20
466.80096
  0
VERTEX
  5
ee
  8
Layer_0
  10
1417.6279
  20
453.00096
  0
VERTEX
  5
ef
  8
Layer_0
  10
1431.4279
  20
453.00095
  0
VERTEX
  5
f0
  8
Layer_0
  10
1431.4279
  20
466.80095
  0
SEQEND
  0
POLYLINE
  5
f2
  8
Layer_0
  62
0
  66
1
  10
0
  20
0
  30
0
  0
VERTEX
  5
f2
  8
Layer_0
  10
1431.4279
  20
447.75095
  0
VERTEX
  5
f3
  8
Layer_0
  10
1417.6279
  20
447.75096
  0
VERTEX
  5
f4
  8
Layer_0
  10
1417.6279
  20
433.95096
  0
VERTEX
  5
f5
  8
Layer_0
  10
1431.4279
  20
433.95094
  0
VERTEX
  5
f6
  8
Layer_0
  10
1431.4279
  20
447.75095
  0
SEQEND
  0
POLYLINE
  5
f8
  8
Layer_0
  62
0
  66
1
  10
0
  20
0
  30
0
  0
VERTEX
  5
f8
  8
Layer_0
  10
1469.5279
  20
485.85092
  0
VERTEX
  5
f9
  8
Layer_0
  10
1455.7279
  20
485.85094
  0
VERTEX
  5
fa
  8
Layer_0
  10
1455.7279
  20
472.05095
  0
VERTEX
  5
fb
  8
Layer_0
  10
1469.5279
  20
472.05093
  0
VERTEX
  5
fc
  8
Layer_0
  10
1469.5279
  20
485.85092
  0
SEQEND
  0
POLYLINE
  5
fe
  8
Layer_0
  62
0
  66
1
  10
0
  20
0
  30
0
  0
VERTEX
  5
fe
  8
Layer_0
  10
1469.5279
  20
447.75093
  0
VERTEX
  5
ff
  8
Layer_0
  10
1455.7279
  20
447.75095
  0
VERTEX
  5
100
  8
Layer_0
  10
1455.7279
  20
433.95094
  0
VERTEX
  5
101
  8
Layer_0
  10
1469.5279
  20
433.95093
  0
VERTEX
  5
102
  8
Layer_0
  10
1469.5279
  20
447.75093
  0
SEQEND
  0
POLYLINE
  5
104
  8
Layer_0
  62
0
  66
1
  10
0
  20
0
  30
0
  0
VERTEX
  5
104
  8
Layer_0
  10
1488.5779
  20
476.85092
  0
VERTEX
  5
105
  8
Layer_0
  10
1474.7779
  20
476.85092
  0
VERTEX
  5
106
  8
Layer_0
  10
1474.7779
  20
463.05093
  0
VERTEX
  5
107
  8
Layer_0
  10
1488.5779
  20
463.05093
  0
VERTEX
  5
108
  8
Layer_0
  10
1488.5779
  20
476.85092
  0
SEQEND
  0
POLYLINE
  5
10a
  8
Layer_0
  62
0
  66
1
  10
0
  20
0
  30
0
  0
VERTEX
  5
10a
  8
Layer_0
  10
1450.4779
  20
398.35094
  0
VERTEX
  5
10b
  8
Layer_0
  10
1450.4779
  20
412.15096
  0
VERTEX
  5
10c
  8
Layer_0
  10
1436.6779
  20
412.15096
  0
VERTEX
  5
10d
  8
Layer_0
  10
1436.6779
  20
398.35094
  0
VERTEX
  5
10e
  8
Layer_0
  10
1450.4779
  20
398.35094
  0
SEQEND
  0
POLYLINE
  5
110
  8
Layer_0
  62
0
  66
1
  10
0
  20
0
  30
0
  0
VERTEX
  5
110
  8
Layer_0
  10
1469.5279
  20
395.85092
  0
VERTEX
  5
111
  8
Layer_0
  10
1469.5279
  20
409.65094
  0
VERTEX
  5
112
  8
Layer_0
  10
1455.7279
  20
409.65096
  0
VERTEX
  5
113
  8
Layer_0
  10
1455.7279
  20
395.85094
  0
VERTEX
  5
114
  8
Layer_0
  10
1469.5279
  20
395.85092
  0
SEQEND
  0
POLYLINE
  5
116
  8
Layer_0
  62
0
  66
1
  10
0
  20
0
  30
0
  0
VERTEX
  5
116
  8
Layer_0
  10
1450.4779
  20
488.35094
  0
VERTEX
  5
117
  8
Layer_0
  10
1436.6779
  20
488.35094
  0
VERTEX
  5
118
  8
Layer_0
  10
1436.6779
  20
474.55095
  0
VERTEX
  5
119
  8
Layer_0
  10
1450.4779
  20
474.55095
  0
VERTEX
  5
11a
  8
Layer_0
  10
1450.4779
  20
488.35094
  0
SEQEND
  0
POLYLINE
  5
11c
  8
Layer_0
  62
0
  66
1
  10
0
  20
0
  30
0
  0
VERTEX
  5
11c
  8
Layer_0
  10
1488.5779
  20
457.80093
  0
VERTEX
  5
11d
  8
Layer_0
  10
1474.7779
  20
457.80093
  0
VERTEX
  5
11e
  8
Layer_0
  10
1474.7779
  20
444.00093
  0
VERTEX
  5
11f
  8
Layer_0
  10
1488.5779
  20
444.00093
  0
VERTEX
  5
120
  8
Layer_0
  10
1488.5779
  20
457.80093
  0
SEQEND
  0
POLYLINE
  5
122
  8
Layer_0
  62
0
  66
1
  10
0
  20
0
  30
0
  0
VERTEX
  5
122
  8
Layer_0
  10
1488.5779
  20
419.70093
  0
VERTEX
  5
123
  8
Layer_0
  10
1474.7779
  20
419.70093
  0
VERTEX
  5
124
  8
Layer_0
  10
1474.7779
  20
405.90094
  0
VERTEX
  5
125
  8
Layer_0
  10
1488.5779
  20
405.90094
  0
VERTEX
  5
126
  8
Layer_0
  10
1488.5779
  20
419.70093
  0
SEQEND
  0
POLYLINE
  5
128
  8
Layer_0
  62
0
  66
1
  10
0
  20
0
  30
0
  0
VERTEX
  5
128
  8
Layer_0
  10
1431.4279
  20
485.85094
  0
VERTEX
  5
129
  8
Layer_0
  10
1417.6279
  20
485.85095
  0
VERTEX
  5
12a
  8
Layer_0
  10
1417.6279
  20
472.05096
  0
VERTEX
  5
12b
  8
Layer_0
  10
1431.4279
  20
472.05095
  0
VERTEX
  5
12c
  8
Layer_0
  10
1431.4279
  20
485.85094
  0
SEQEND
  0
POLYLINE
  5
12e
  8
Layer_0
  62
0
  66
1
  10
0
  20
0
  30
0
  0
VERTEX
  5
12e
  8
Layer_0
  10
1412.3779
  20
426.20096
  0
VERTEX
  5
12f
  8
Layer_0
  10
1398.5779
  20
426.20096
  0
VERTEX
  5
130
  8
Layer_0
  10
1398.5779
  20
412.40097
  0
VERTEX
  5
131
  8
Layer_0
  10
1412.3779
  20
412.40097
  0
VERTEX
  5
132
  8
Layer_0
  10
1412.3779
  20
426.20096
  0
SEQEND
  0
POLYLINE
  5
134
  8
Layer_0
  62
0
  66
1
  10
0
  20
0
  30
0
  0
VERTEX
  5
134
  8
Layer_0
  10
1412.3779
  20
464.25096
  0
VERTEX
  5
135
  8
Layer_0
  10
1398.5779
  20
464.25096
  0
VERTEX
  5
136
  8
Layer_0
  10
1398.5779
  20
450.45096
  0
VERTEX
  5
137
  8
Layer_0
  10
1412.3779
  20
450.45096
  0
VERTEX
  5
138
  8
Layer_0
  10
1412.3779
  20
464.25096
  0
SEQEND
  0
POLYLINE
  5
13a
  8
Layer_0
  62
0
  66
1
  10
0
  20
0
  30
0
  0
VERTEX
  5
13a
  8
Layer_0
  10
1412.3779
  20
483.35095
  0
VERTEX
  5
13b
  8
Layer_0
  10
1398.5779
  20
483.35095
  0
VERTEX
  5
13c
  8
Layer_0
  10
1398.5779
  20
469.55096
  0
VERTEX
  5
13d
  8
Layer_0
  10
1412.3779
  20
469.55096
  0
VERTEX
  5
13e
  8
Layer_0
  10
1412.3779
  20
483.35095
  0
SEQEND
  0
POLYLINE
  5
140
  8
Layer_0
  62
0
  66
1
  10
0
  20
0
  30
0
  0
VERTEX
  5
140
  8
Layer_0
  10
1412.3779
  20
445.25096
  0
VERTEX
  5
141
  8
Layer_0
  10
1398.5779
  20
445.25096
  0
VERTEX
  5
142
  8
Layer_0
  10
1398.5779
  20
431.45096
  0
VERTEX
  5
143
  8
Layer_0
  10
1412.3779
  20
431.45096
  0
VERTEX
  5
144
  8
Layer_0
  10
1412.3779
  20
445.25096
  0
SEQEND
  0
POLYLINE
  5
146
  8
Layer_0
  62
0
  66
1
  10
0
  20
0
  30
0
  0
VERTEX
  5
146
  8
Layer_0
  10
1384.1635
  20
402.47656
  0
VERTEX
  5
147
  8
Layer_0
  10
1391.0635
  20
390.52545
  0
VERTEX
  5
148
  8
Layer_0
  10
1379.1122
  20
383.62546
  0
VERTEX
  5
149
  8
Layer_0
  10
1372.2123
  20
395.57658
  0
VERTEX
  5
14a
  8
Layer_0
  10
1384.1635
  20
402.47656
  0
SEQEND
  0
POLYLINE
  5
14c
  8
Layer_0
  62
0
  66
1
  10
0
  20
0
  30
0
  0
VERTEX
  5
14c
  8
Layer_0
  10
1394.0771
  20
402.93005
  0
VERTEX
  5
14d
  8
Layer_0
  10
1407.4069
  20
406.50177
  0
VERTEX
  5
14e
  8
Layer_0
  10
1410.9786
  20
393.17197
  0
VERTEX
  5
14f
  8
Layer_0
  10
1397.6489
  20
389.60025
  0
VERTEX
  5
150
  8
Layer_0
  10
1394.0771
  20
402.93005
  0
SEQEND
  0
POLYLINE
  5
152
  8
Layer_0
  62
0
  66
1
  10
0
  20
0
  30
0
  0
VERTEX
  5
152
  8
Layer_0
  10
1397.4919
  20
489.86264
  42
0.40351089
  0
VERTEX
  5
153
  8
Layer_0
  10
1396.5286
  20
488.86331
  0
VERTEX
  5
154
  8
Layer_0
  10
1396.5286
  20
432.95529
  42
-0.41330213
  0
VERTEX
  5
155
  8
Layer_0
  10
1394.0246
  20
430.45129
  0
VERTEX
  5
156
  8
Layer_0
  10
1374.3286
  20
430.45129
  42
0.41421356
  0
VERTEX
  5
157
  8
Layer_0
  10
1373.3286
  20
429.45131
  0
VERTEX
  5
158
  8
Layer_0
  10
1373.3286
  20
412.05132
  0
VERTEX
  5
159
  8
Layer_0
  10
1373.2246
  20
411.39531
  0
VERTEX
  5
15a
  8
Layer_0
  10
1373.0246
  20
410.7953
  0
VERTEX
  5
15b
  8
Layer_0
  10
1367.2166
  20
400.05132
  42
0.25524292
  0
VERTEX
  5
15c
  8
Layer_0
  10
1367.2726
  20
398.13931
  0
VERTEX
  5
15d
  8
Layer_0
  10
1377.2566
  20
380.79529
  42
0.34622361
  0
VERTEX
  5
15e
  8
Layer_0
  10
1379.5446
  20
379.87531
  0
VERTEX
  5
15f
  8
Layer_0
  10
1423.1766
  20
393.00328
  0
VERTEX
  5
160
  8
Layer_0
  10
1472.1526
  20
393.00327
  0
VERTEX
  5
161
  8
Layer_0
  10
1509.7366
  20
403.07524
  42
0.33698719
  0
VERTEX
  5
162
  8
Layer_0
  10
1510.4806
  20
404.04324
  0
VERTEX
  5
163
  8
Layer_0
  10
1510.4807
  20
478.75525
  42
0.34773617
  0
VERTEX
  5
164
  8
Layer_0
  10
1509.6887
  20
479.73125
  0
VERTEX
  5
165
  8
Layer_0
  10
1460.9766
  20
491.20328
  0
VERTEX
  5
166
  8
Layer_0
  10
1434.0247
  20
491.20328
  0
VERTEX
  5
167
  8
Layer_0
  10
1397.4919
  20
489.86264
  0
SEQEND
  0
POLYLINE
  5
169
  8
Layer_0
  62
0
  66
1
  10
0
  20
0
  30
0
  0
VERTEX
  5
169
  8
Layer_0
  10
1377.0304
  20
415.44896
  0
VERTEX
  5
16a
  8
Layer_0
  10
1392.3304
  20
415.44896
  0
VERTEX
  5
16b
  8
Layer_0
  10
1392.3304
  20
428.44896
  0
VERTEX
  5
16c
  8
Layer_0
  10
1377.0304
  20
428.44896
  0
VERTEX
  5
16d
  8
Layer_0
  10
1377.0304
  20
415.44896
  0
SEQEND
  0
CIRCLE
  5
16f
  8
Layer_0
  62
0
  10
1316.374
  20
431.32632
  30
0
  40
1.1
  0
CIRCLE
  5
16f
  8
Layer_0
  62
0
  10
1344.0741
  20
407.45129
  30
0
  40
1.1
  0
CIRCLE
  5
16f
  8
Layer_0
  62
0
  10
1240.7983
  20
422.32635
  30
0
  40
1.1
  0
CIRCLE
  5
16f
  8
Layer_0
  62
0
  10
1240.7983
  20
460.42636
  30
0
  40
1.1
  0
CIRCLE
  5
16f
  8
Layer_0
  62
0
  10
1316.374
  20
469.42633
  30
0
  40
1.1
  0
POLYLINE
  5
16f
  8
Layer_0
  62
0
  66
1
  10
0
  20
0
  30
0
  0
VERTEX
  5
16f
  8
Layer_0
  10
1224.3733
  20
419.70103
  0
VERTEX
  5
170
  8
Layer_0
  10
1238.1733
  20
419.70102
  0
VERTEX
  5
171
  8
Layer_0
  10
1238.1733
  20
405.90103
  0
VERTEX
  5
172
  8
Layer_0
  10
1224.3733
  20
405.90105
  0
VERTEX
  5
173
  8
Layer_0
  10
1224.3733
  20
419.70103
  0
SEQEND
  0
POLYLINE
  5
175
  8
Layer_0
  62
0
  66
1
  10
0
  20
0
  30
0
  0
VERTEX
  5
175
  8
Layer_0
  10
1224.3733
  20
457.80104
  0
VERTEX
  5
176
  8
Layer_0
  10
1238.1733
  20
457.80103
  0
VERTEX
  5
177
  8
Layer_0
  10
1238.1733
  20
444.00102
  0
VERTEX
  5
178
  8
Layer_0
  10
1224.3733
  20
444.00104
  0
VERTEX
  5
179
  8
Layer_0
  10
1224.3733
  20
457.80104
  0
SEQEND
  0
POLYLINE
  5
17b
  8
Layer_0
  62
0
  66
1
  10
0
  20
0
  30
0
  0
VERTEX
  5
17b
  8
Layer_0
  10
1224.3734
  20
476.85103
  0
VERTEX
  5
17c
  8
Layer_0
  10
1238.1733
  20
476.85101
  0
VERTEX
  5
17d
  8
Layer_0
  10
1238.1733
  20
463.05103
  0
VERTEX
  5
17e
  8
Layer_0
  10
1224.3733
  20
463.05104
  0
VERTEX
  5
17f
  8
Layer_0
  10
1224.3734
  20
476.85103
  0
SEQEND
  0
POLYLINE
  5
181
  8
Layer_0
  62
0
  66
1
  10
0
  20
0
  30
0
  0
VERTEX
  5
181
  8
Layer_0
  10
1224.3733
  20
438.75102
  0
VERTEX
  5
182
  8
Layer_0
  10
1238.1733
  20
438.75101
  0
VERTEX
  5
183
  8
Layer_0
  10
1238.1733
  20
424.95102
  0
VERTEX
  5
184
  8
Layer_0
  10
1224.3733
  20
424.95103
  0
VERTEX
  5
185
  8
Layer_0
  10
1224.3733
  20
438.75102
  0
SEQEND
  0
POLYLINE
  5
187
  8
Layer_0
  62
0
  66
1
  10
0
  20
0
  30
0
  0
VERTEX
  5
187
  8
Layer_0
  10
1281.5233
  20
450.25101
  0
VERTEX
  5
188
  8
Layer_0
  10
1295.3234
  20
450.25101
  0
VERTEX
  5
189
  8
Layer_0
  10
1295.3233
  20
436.451
  0
VERTEX
  5
18a
  8
Layer_0
  10
1281.5233
  20
436.451
  0
VERTEX
  5
18b
  8
Layer_0
  10
1281.5233
  20
450.25101
  0
SEQEND
  0
POLYLINE
  5
18d
  8
Layer_0
  62
0
  66
1
  10
0
  20
0
  30
0
  0
VERTEX
  5
18d
  8
Layer_0
  10
1262.4733
  20
428.70102
  0
VERTEX
  5
18e
  8
Layer_0
  10
1276.2733
  20
428.701
  0
VERTEX
  5
18f
  8
Layer_0
  10
1276.2733
  20
414.90102
  0
VERTEX
  5
190
  8
Layer_0
  10
1262.4733
  20
414.90103
  0
VERTEX
  5
191
  8
Layer_0
  10
1262.4733
  20
428.70102
  0
SEQEND
  0
POLYLINE
  5
193
  8
Layer_0
  62
0
  66
1
  10
0
  20
0
  30
0
  0
VERTEX
  5
193
  8
Layer_0
  10
1300.5733
  20
428.701
  0
VERTEX
  5
194
  8
Layer_0
  10
1314.3733
  20
428.70099
  0
VERTEX
  5
195
  8
Layer_0
  10
1314.3733
  20
414.901
  0
VERTEX
  5
196
  8
Layer_0
  10
1300.5733
  20
414.90102
  0
VERTEX
  5
197
  8
Layer_0
  10
1300.5733
  20
428.701
  0
SEQEND
  0
POLYLINE
  5
199
  8
Layer_0
  62
0
  66
1
  10
0
  20
0
  30
0
  0
VERTEX
  5
199
  8
Layer_0
  10
1243.4233
  20
438.75101
  0
VERTEX
  5
19a
  8
Layer_0
  10
1257.2233
  20
438.75101
  0
VERTEX
  5
19b
  8
Layer_0
  10
1257.2233
  20
424.95102
  0
VERTEX
  5
19c
  8
Layer_0
  10
1243.4233
  20
424.95102
  0
VERTEX
  5
19d
  8
Layer_0
  10
1243.4233
  20
438.75101
  0
SEQEND
  0
POLYLINE
  5
19f
  8
Layer_0
  62
0
  66
1
  10
0
  20
0
  30
0
  0
VERTEX
  5
19f
  8
Layer_0
  10
1281.5233
  20
469.30101
  0
VERTEX
  5
1a0
  8
Layer_0
  10
1295.3234
  20
469.30101
  0
VERTEX
  5
1a1
  8
Layer_0
  10
1295.3234
  20
455.50101
  0
VERTEX
  5
1a2
  8
Layer_0
  10
1281.5233
  20
455.50101
  0
VERTEX
  5
1a3
  8
Layer_0
  10
1281.5233
  20
469.30101
  0
SEQEND
  0
POLYLINE
  5
1a5
  8
Layer_0
  62
0
  66
1
  10
0
  20
0
  30
0
  0
VERTEX
  5
1a5
  8
Layer_0
  10
1281.5233
  20
431.201
  0
VERTEX
  5
1a6
  8
Layer_0
  10
1295.3233
  20
431.201
  0
VERTEX
  5
1a7
  8
Layer_0
  10
1295.3233
  20
417.40102
  0
VERTEX
  5
1a8
  8
Layer_0
  10
1281.5233
  20
417.40102
  0
VERTEX
  5
1a9
  8
Layer_0
  10
1281.5233
  20
431.201
  0
SEQEND
  0
POLYLINE
  5
1ab
  8
Layer_0
  62
0
  66
1
  10
0
  20
0
  30
0
  0
VERTEX
  5
1ab
  8
Layer_0
  10
1262.4733
  20
466.80103
  0
VERTEX
  5
1ac
  8
Layer_0
  10
1276.2733
  20
466.80101
  0
VERTEX
  5
1ad
  8
Layer_0
  10
1276.2733
  20
453.00101
  0
VERTEX
  5
1ae
  8
Layer_0
  10
1262.4733
  20
453.00102
  0
VERTEX
  5
1af
  8
Layer_0
  10
1262.4733
  20
466.80103
  0
SEQEND
  0
POLYLINE
  5
1b1
  8
Layer_0
  62
0
  66
1
  10
0
  20
0
  30
0
  0
VERTEX
  5
1b1
  8
Layer_0
  10
1314.3733
  20
395.85098
  0
VERTEX
  5
1b2
  8
Layer_0
  10
1300.5733
  20
395.851
  0
VERTEX
  5
1b3
  8
Layer_0
  10
1300.5733
  20
409.65102
  0
VERTEX
  5
1b4
  8
Layer_0
  10
1314.3733
  20
409.651
  0
VERTEX
  5
1b5
  8
Layer_0
  10
1314.3733
  20
395.85098
  0
SEQEND
  0
POLYLINE
  5
1b7
  8
Layer_0
  62
0
  66
1
  10
0
  20
0
  30
0
  0
VERTEX
  5
1b7
  8
Layer_0
  10
1300.5734
  20
466.80101
  0
VERTEX
  5
1b8
  8
Layer_0
  10
1314.3733
  20
466.80099
  0
VERTEX
  5
1b9
  8
Layer_0
  10
1314.3733
  20
453.00099
  0
VERTEX
  5
1ba
  8
Layer_0
  10
1300.5734
  20
453.00101
  0
VERTEX
  5
1bb
  8
Layer_0
  10
1300.5734
  20
466.80101
  0
SEQEND
  0
POLYLINE
  5
1bd
  8
Layer_0
  62
0
  66
1
  10
0
  20
0
  30
0
  0
VERTEX
  5
1bd
  8
Layer_0
  10
1300.5734
  20
447.75101
  0
VERTEX
  5
1be
  8
Layer_0
  10
1314.3733
  20
447.75099
  0
VERTEX
  5
1bf
  8
Layer_0
  10
1314.3733
  20
433.95099
  0
VERTEX
  5
1c0
  8
Layer_0
  10
1300.5733
  20
433.951
  0
VERTEX
  5
1c1
  8
Layer_0
  10
1300.5734
  20
447.75101
  0
SEQEND
  0
POLYLINE
  5
1c3
  8
Layer_0
  62
0
  66
1
  10
0
  20
0
  30
0
  0
VERTEX
  5
1c3
  8
Layer_0
  10
1262.4733
  20
485.85101
  0
VERTEX
  5
1c4
  8
Layer_0
  10
1276.2733
  20
485.851
  0
VERTEX
  5
1c5
  8
Layer_0
  10
1276.2733
  20
472.05101
  0
VERTEX
  5
1c6
  8
Layer_0
  10
1262.4733
  20
472.05103
  0
VERTEX
  5
1c7
  8
Layer_0
  10
1262.4733
  20
485.85101
  0
SEQEND
  0
POLYLINE
  5
1c9
  8
Layer_0
  62
0
  66
1
  10
0
  20
0
  30
0
  0
VERTEX
  5
1c9
  8
Layer_0
  10
1262.4733
  20
447.75102
  0
VERTEX
  5
1ca
  8
Layer_0
  10
1276.2733
  20
447.75101
  0
VERTEX
  5
1cb
  8
Layer_0
  10
1276.2733
  20
433.951
  0
VERTEX
  5
1cc
  8
Layer_0
  10
1262.4733
  20
433.95102
  0
VERTEX
  5
1cd
  8
Layer_0
  10
1262.4733
  20
447.75102
  0
SEQEND
  0
POLYLINE
  5
1cf
  8
Layer_0
  62
0
  66
1
  10
0
  20
0
  30
0
  0
VERTEX
  5
1cf
  8
Layer_0
  10
1243.4233
  20
476.85101
  0
VERTEX
  5
1d0
  8
Layer_0
  10
1257.2233
  20
476.85101
  0
VERTEX
  5
1d1
  8
Layer_0
  10
1257.2233
  20
463.05103
  0
VERTEX
  5
1d2
  8
Layer_0
  10
1243.4233
  20
463.05103
  0
VERTEX
  5
1d3
  8
Layer_0
  10
1243.4233
  20
476.85101
  0
SEQEND
  0
POLYLINE
  5
1d5
  8
Layer_0
  62
0
  66
1
  10
0
  20
0
  30
0
  0
VERTEX
  5
1d5
  8
Layer_0
  10
1281.5233
  20
398.351
  0
VERTEX
  5
1d6
  8
Layer_0
  10
1281.5233
  20
412.15102
  0
VERTEX
  5
1d7
  8
Layer_0
  10
1295.3233
  20
412.15102
  0
VERTEX
  5
1d8
  8
Layer_0
  10
1295.3233
  20
398.351
  0
VERTEX
  5
1d9
  8
Layer_0
  10
1281.5233
  20
398.351
  0
SEQEND
  0
POLYLINE
  5
1db
  8
Layer_0
  62
0
  66
1
  10
0
  20
0
  30
0
  0
VERTEX
  5
1db
  8
Layer_0
  10
1262.4733
  20
395.85101
  0
VERTEX
  5
1dc
  8
Layer_0
  10
1262.4733
  20
409.65103
  0
VERTEX
  5
1dd
  8
Layer_0
  10
1276.2733
  20
409.65102
  0
VERTEX
  5
1de
  8
Layer_0
  10
1276.2733
  20
395.851
  0
VERTEX
  5
1df
  8
Layer_0
  10
1262.4733
  20
395.85101
  0
SEQEND
  0
POLYLINE
  5
1e1
  8
Layer_0
  62
0
  66
1
  10
0
  20
0
  30
0
  0
VERTEX
  5
1e1
  8
Layer_0
  10
1281.5233
  20
488.351
  0
VERTEX
  5
1e2
  8
Layer_0
  10
1295.3234
  20
488.351
  0
VERTEX
  5
1e3
  8
Layer_0
  10
1295.3234
  20
474.55101
  0
VERTEX
  5
1e4
  8
Layer_0
  10
1281.5233
  20
474.55101
  0
VERTEX
  5
1e5
  8
Layer_0
  10
1281.5233
  20
488.351
  0
SEQEND
  0
POLYLINE
  5
1e7
  8
Layer_0
  62
0
  66
1
  10
0
  20
0
  30
0
  0
VERTEX
  5
1e7
  8
Layer_0
  10
1243.4233
  20
457.80103
  0
VERTEX
  5
1e8
  8
Layer_0
  10
1257.2233
  20
457.80103
  0
VERTEX
  5
1e9
  8
Layer_0
  10
1257.2233
  20
444.00102
  0
VERTEX
  5
1ea
  8
Layer_0
  10
1243.4233
  20
444.00102
  0
VERTEX
  5
1eb
  8
Layer_0
  10
1243.4233
  20
457.80103
  0
SEQEND
  0
POLYLINE
  5
1ed
  8
Layer_0
  62
0
  66
1
  10
0
  20
0
  30
0
  0
VERTEX
  5
1ed
  8
Layer_0
  10
1243.4233
  20
419.70102
  0
VERTEX
  5
1ee
  8
Layer_0
  10
1257.2233
  20
419.70102
  0
VERTEX
  5
1ef
  8
Layer_0
  10
1257.2233
  20
405.90103
  0
VERTEX
  5
1f0
  8
Layer_0
  10
1243.4233
  20
405.90103
  0
VERTEX
  5
1f1
  8
Layer_0
  10
1243.4233
  20
419.70102
  0
SEQEND
  0
POLYLINE
  5
1f3
  8
Layer_0
  62
0
  66
1
  10
0
  20
0
  30
0
  0
VERTEX
  5
1f3
  8
Layer_0
  10
1300.5734
  20
485.851
  0
VERTEX
  5
1f4
  8
Layer_0
  10
1314.3734
  20
485.85098
  0
VERTEX
  5
1f5
  8
Layer_0
  10
1314.3733
  20
472.05099
  0
VERTEX
  5
1f6
  8
Layer_0
  10
1300.5734
  20
472.05101
  0
VERTEX
  5
1f7
  8
Layer_0
  10
1300.5734
  20
485.851
  0
SEQEND
  0
POLYLINE
  5
1f9
  8
Layer_0
  62
0
  66
1
  10
0
  20
0
  30
0
  0
VERTEX
  5
1f9
  8
Layer_0
  10
1319.6233
  20
426.20099
  0
VERTEX
  5
1fa
  8
Layer_0
  10
1333.4233
  20
426.20099
  0
VERTEX
  5
1fb
  8
Layer_0
  10
1333.4233
  20
412.401
  0
VERTEX
  5
1fc
  8
Layer_0
  10
1319.6233
  20
412.401
  0
VERTEX
  5
1fd
  8
Layer_0
  10
1319.6233
  20
426.20099
  0
SEQEND
  0
POLYLINE
  5
1ff
  8
Layer_0
  62
0
  66
1
  10
0
  20
0
  30
0
  0
VERTEX
  5
1ff
  8
Layer_0
  10
1319.6233
  20
464.25099
  0
VERTEX
  5
200
  8
Layer_0
  10
1333.4233
  20
464.25099
  0
VERTEX
  5
201
  8
Layer_0
  10
1333.4233
  20
450.45099
  0
VERTEX
  5
202
  8
Layer_0
  10
1319.6233
  20
450.45099
  0
VERTEX
  5
203
  8
Layer_0
  10
1319.6233
  20
464.25099
  0
SEQEND
  0
POLYLINE
  5
205
  8
Layer_0
  62
0
  66
1
  10
0
  20
0
  30
0
  0
VERTEX
  5
205
  8
Layer_0
  10
1319.6233
  20
483.35098
  0
VERTEX
  5
206
  8
Layer_0
  10
1333.4233
  20
483.35098
  0
VERTEX
  5
207
  8
Layer_0
  10
1333.4233
  20
469.55099
  0
VERTEX
  5
208
  8
Layer_0
  10
1319.6233
  20
469.55099
  0
VERTEX
  5
209
  8
Layer_0
  10
1319.6233
  20
483.35098
  0
SEQEND
  0
POLYLINE
  5
20b
  8
Layer_0
  62
0
  66
1
  10
0
  20
0
  30
0
  0
VERTEX
  5
20b
  8
Layer_0
  10
1319.6233
  20
445.25099
  0
VERTEX
  5
20c
  8
Layer_0
  10
1333.4233
  20
445.25099
  0
VERTEX
  5
20d
  8
Layer_0
  10
1333.4233
  20
431.45099
  0
VERTEX
  5
20e
  8
Layer_0
  10
1319.6233
  20
431.45099
  0
VERTEX
  5
20f
  8
Layer_0
  10
1319.6233
  20
445.25099
  0
SEQEND
  0
POLYLINE
  5
211
  8
Layer_0
  62
0
  66
1
  10
0
  20
0
  30
0
  0
VERTEX
  5
211
  8
Layer_0
  10
1347.8377
  20
402.47659
  0
VERTEX
  5
212
  8
Layer_0
  10
1340.9377
  20
390.52548
  0
VERTEX
  5
213
  8
Layer_0
  10
1352.8889
  20
383.62549
  0
VERTEX
  5
214
  8
Layer_0
  10
1359.7889
  20
395.57658
  0
VERTEX
  5
215
  8
Layer_0
  10
1347.8377
  20
402.47659
  0
SEQEND
  0
POLYLINE
  5
217
  8
Layer_0
  62
0
  66
1
  10
0
  20
0
  30
0
  0
VERTEX
  5
217
  8
Layer_0
  10
1337.924
  20
402.93008
  0
VERTEX
  5
218
  8
Layer_0
  10
1324.5943
  20
406.5018
  0
VERTEX
  5
219
  8
Layer_0
  10
1321.0226
  20
393.172
  0
VERTEX
  5
21a
  8
Layer_0
  10
1334.3523
  20
389.60028
  0
VERTEX
  5
21b
  8
Layer_0
  10
1337.924
  20
402.93008
  0
SEQEND
  0
POLYLINE
  5
21d
  8
Layer_0
  62
0
  66
1
  10
0
  20
0
  30
0
  0
VERTEX
  5
21d
  8
Layer_0
  10
1334.5093
  20
489.86267
  42
-0.40351089
  0
VERTEX
  5
21e
  8
Layer_0
  10
1335.4726
  20
488.86334
  0
VERTEX
  5
21f
  8
Layer_0
  10
1335.4726
  20
432.95532
  42
0.41330213
  0
VERTEX
  5
220
  8
Layer_0
  10
1337.9766
  20
430.45132
  0
VERTEX
  5
221
  8
Layer_0
  10
1357.6726
  20
430.45132
  42
-0.41421356
  0
VERTEX
  5
222
  8
Layer_0
  10
1358.6726
  20
429.45131
  0
VERTEX
  5
223
  8
Layer_0
  10
1358.6726
  20
412.05132
  0
VERTEX
  5
224
  8
Layer_0
  10
1358.7766
  20
411.39531
  0
VERTEX
  5
225
  8
Layer_0
  10
1358.9766
  20
410.7953
  0
VERTEX
  5
226
  8
Layer_0
  10
1364.7845
  20
400.05132
  42
-0.25524292
  0
VERTEX
  5
227
  8
Layer_0
  10
1364.7286
  20
398.13931
  0
VERTEX
  5
228
  8
Layer_0
  10
1354.7446
  20
380.79532
  42
-0.34622361
  0
VERTEX
  5
229
  8
Layer_0
  10
1352.4565
  20
379.87534
  0
VERTEX
  5
22a
  8
Layer_0
  10
1308.8246
  20
393.00334
  0
VERTEX
  5
22b
  8
Layer_0
  10
1259.8486
  20
393.00336
  0
VERTEX
  5
22c
  8
Layer_0
  10
1222.2646
  20
403.07536
  42
-0.33698719
  0
VERTEX
  5
22d
  8
Layer_0
  10
1221.5206
  20
404.04337
  0
VERTEX
  5
22e
  8
Layer_0
  10
1221.5206
  20
478.75537
  42
-0.34773617
  0
VERTEX
  5
22f
  8
Layer_0
  10
1222.3126
  20
479.73137
  0
VERTEX
  5
230
  8
Layer_0
  10
1271.0246
  20
491.20334
  0
VERTEX
  5
231
  8
Layer_0
  10
1297.9766
  20
491.20334
  0
VERTEX
  5
232
  8
Layer_0
  10
1334.5093
  20
489.86267
  0
SEQEND
  0
POLYLINE
  5
234
  8
Layer_0
  62
0
  66
1
  10
0
  20
0
  30
0
  0
VERTEX
  5
234
  8
Layer_0
  10
1354.9707
  20
415.44897
  0
VERTEX
  5
235
  8
Layer_0
  10
1339.6707
  20
415.44897
  0
VERTEX
  5
236
  8
Layer_0
  10
1339.6707
  20
428.44897
  0
VERTEX
  5
237
  8
Layer_0
  10
1354.9707
  20
428.44897
  0
VERTEX
  5
238
  8
Layer_0
  10
1354.9707
  20
415.44897
  0
SEQEND
  0
ENDSEC
  0
EOF
